<svg width="709" height="402" viewBox="0 0 709 402" fill="none" xmlns="http://www.w3.org/2000/svg">
<path d="M622.593 230.074H139.112V363.794H622.593V230.074Z" fill="#026A37"/>
<path d="M160.74 328.318C149.296 328.318 139.952 318.976 139.952 307.535V165.208C139.952 153.768 149.296 144.426 160.74 144.426C172.184 144.426 181.528 153.768 181.528 165.208V307.535C181.528 318.976 172.184 328.318 160.74 328.318Z" fill="#026A37"/>
<path d="M122.209 274.787C106.775 274.787 94.0713 262.192 94.0713 246.658V210.656C94.0713 195.227 106.67 182.527 122.209 182.527C137.642 182.527 150.346 195.122 150.346 210.656V246.658C150.346 262.087 137.747 274.787 122.209 274.787Z" fill="#7AC843"/>
<path d="M597.605 346.686C586.161 346.686 576.817 337.344 576.817 325.903V182.632C576.817 171.191 586.161 161.85 597.605 161.85C609.049 161.85 618.393 171.191 618.393 182.632V326.008C618.393 337.344 609.049 346.686 597.605 346.686Z" fill="#026A37"/>
<path d="M628.787 362.325C617.343 362.325 607.999 352.983 607.999 341.543V216.324C607.999 204.884 617.343 195.542 628.787 195.542C640.231 195.542 649.575 204.884 649.575 216.324V341.543C649.575 352.983 640.231 362.325 628.787 362.325Z" fill="#026A37"/>
<path d="M196.437 339.968C184.993 339.968 175.649 330.627 175.649 319.186V176.754C175.649 165.313 184.993 155.972 196.437 155.972C207.881 155.972 217.225 165.313 217.225 176.754V319.186C217.225 330.627 207.881 339.968 196.437 339.968Z" fill="#026A37"/>
<path d="M246.307 254.215C228.774 254.215 214.495 239.836 214.495 222.412V156.602C214.495 139.073 228.879 124.798 246.307 124.798C263.841 124.798 278.12 139.178 278.12 156.602V222.412C278.12 239.94 263.841 254.215 246.307 254.215Z" fill="#026A37"/>
<path d="M310.246 254.53C288.933 254.53 271.505 237.107 271.505 215.799V135.819C271.505 114.512 288.933 97.0888 310.246 97.0888C331.56 97.0888 348.988 114.512 348.988 135.819V215.799C348.883 237.107 331.455 254.53 310.246 254.53Z" fill="#026A37"/>
<path d="M546.895 347.84C525.582 347.84 508.153 330.417 508.153 309.11V195.437C508.153 174.13 525.582 156.707 546.895 156.707C568.208 156.707 585.636 174.13 585.636 195.437V309.11C585.636 330.417 568.208 347.84 546.895 347.84Z" fill="#026A37"/>
<path d="M240.323 310.369C222.37 310.369 207.671 295.675 207.671 277.726V225.981C207.671 208.032 222.37 193.338 240.323 193.338C258.276 193.338 272.975 208.032 272.975 225.981V277.726C272.87 295.675 258.276 310.369 240.323 310.369Z" fill="#004420"/>
<path d="M243.998 300.188H236.543V364.424H243.998V300.188Z" fill="#004420"/>
<path d="M126.198 267.23H118.324V353.508H126.198V267.23Z" fill="#7AC843"/>
<path d="M134.282 261.877C125.673 261.877 118.534 254.845 118.534 246.133V215.17C118.534 206.563 125.568 199.426 134.282 199.426C142.892 199.426 150.031 206.458 150.031 215.17V246.133C150.031 254.74 142.997 261.877 134.282 261.877Z" fill="#5CA820"/>
<path d="M621.438 310.474C603.484 310.474 588.786 295.78 588.786 277.831V253.061C588.786 235.112 603.484 220.418 621.438 220.418C639.391 220.418 654.09 235.112 654.09 253.061V277.831C654.09 295.78 639.391 310.474 621.438 310.474Z" fill="#7AC843"/>
<path d="M627.107 298.404H615.873V362.43H627.107V298.404Z" fill="#7AC843"/>
<path d="M638.341 295.885C629.732 295.885 622.593 288.852 622.593 280.14V249.177C622.593 240.57 629.627 233.433 638.341 233.433C646.951 233.433 654.09 240.465 654.09 249.177V280.14C654.09 288.747 647.055 295.885 638.341 295.885Z" fill="#5CA820"/>
<path d="M205.781 314.673C196.752 314.673 188.773 319.081 183.838 325.798C179.008 318.136 170.399 312.993 160.635 312.993C145.517 312.993 133.233 325.274 133.233 340.388C133.233 342.172 133.443 343.852 133.758 345.531C131.028 342.802 127.248 341.123 123.154 341.123C117.169 341.123 112.025 344.691 109.61 349.73C108.665 344.586 104.15 340.703 98.7958 340.703C93.5463 340.703 89.2417 344.272 87.9818 349.205C87.0369 344.062 82.5223 340.178 77.0628 340.178C70.9734 340.178 66.0388 345.111 66.0388 351.199C66.0388 352.249 66.1438 353.193 66.4588 354.138C64.9889 353.298 63.2041 352.773 61.4193 352.773C55.9598 352.773 51.5502 357.182 51.5502 362.64C51.5502 363.899 51.7602 365.054 52.1801 366.103H70.6584H112.13H134.178H151.501H169.874H193.392H216.7H218.17C226.989 361.59 232.974 352.459 232.974 341.857C232.974 326.848 220.795 314.673 205.781 314.673ZM88.0868 354.348H87.7719C87.8768 354.138 87.8768 354.033 87.9818 353.823C87.9818 353.928 87.9818 354.138 88.0868 354.348Z" fill="#7AC843"/>
<path d="M511.408 314.673C520.437 314.673 528.416 319.081 533.351 325.798C538.181 318.136 546.79 312.993 556.554 312.993C571.672 312.993 583.956 325.274 583.956 340.388C583.956 342.172 583.746 343.852 583.431 345.531C586.161 342.802 589.941 341.123 594.035 341.123C600.02 341.123 605.164 344.691 607.579 349.73C608.524 344.586 613.039 340.703 618.393 340.703C623.643 340.703 627.947 344.272 629.207 349.205C630.152 344.062 634.667 340.178 640.126 340.178C646.216 340.178 651.15 345.111 651.15 351.199C651.15 352.249 651.045 353.193 650.73 354.138C652.2 353.298 653.985 352.773 655.77 352.773C661.229 352.773 665.639 357.182 665.639 362.64C665.639 363.899 665.429 365.054 665.009 366.103H646.531H605.059H583.011H565.688H547.315H523.797H500.489H499.019C490.2 361.59 484.216 352.459 484.216 341.857C484.216 326.848 496.394 314.673 511.408 314.673ZM629.102 354.348H629.417C629.312 354.138 629.312 354.033 629.207 353.823C629.207 353.928 629.102 354.138 629.102 354.348Z" fill="#7AC843"/>
<path d="M267.096 205.513H264.681V243.404H267.096V205.513Z" fill="#021E0F"/>
<path d="M262.896 256.309L268.776 256.309C269.825 256.309 270.56 257.148 270.56 258.093C270.56 259.368 269.527 260.402 268.251 260.402L263.42 260.402C262.145 260.402 261.111 259.368 261.111 258.093C261.111 257.148 261.951 256.309 262.896 256.309Z" fill="white"/>
<path d="M283.579 257.574H248.092L264.681 243.404H266.991L283.579 257.574Z" fill="#021E0F"/>
<path d="M205.466 217.374H200.742V354.558H205.466V217.374Z" fill="white"/>
<path d="M183.517 218.001L180.176 221.34L202.077 243.235L205.417 239.895L183.517 218.001Z" fill="white"/>
<path d="M563.903 68.3295H514.243V75.4668H563.903V68.3295Z" fill="#7AC843"/>
<path d="M555.609 158.176L522.537 120.39V75.4668H555.609V158.176Z" fill="#90DB56"/>
<path d="M569.887 366.418H321.375V191.344L446.839 39.9901L569.887 191.344V366.418Z" fill="#EFECE7"/>
<path d="M175.334 230.809L173.129 220.208L310.981 190.399L447.469 24.6658L576.922 187.67L565.793 196.487L447.259 47.2324L320.955 200.055L175.334 230.809Z" fill="white"/>
<path d="M174.389 226.61L171.449 212.756L310.982 182.527L447.469 16.7937L580.702 184.521L569.573 193.338L447.259 39.4653L318.751 195.437L174.389 226.61Z" fill="#7AC843"/>
<path d="M456.288 96.7739H442.114V103.911H456.288V96.7739Z" fill="#BEC7B2"/>
<path d="M373.451 165.313H359.277V172.451H373.451V165.313Z" fill="#BEC7B2"/>
<path d="M364.002 174.76H349.828V181.897H364.002V174.76Z" fill="#BEC7B2"/>
<path d="M382.9 174.76H368.726V181.897H382.9V174.76Z" fill="#BEC7B2"/>
<path d="M458.598 193.653H444.424V200.79H458.598V193.653Z" fill="#BEC7B2"/>
<path d="M475.186 193.653H461.012V200.79H475.186V193.653Z" fill="#BEC7B2"/>
<path d="M548.575 203.204H534.401V210.342H548.575V203.204Z" fill="#BEC7B2"/>
<path d="M539.126 212.651H524.952V219.788H539.126V212.651Z" fill="#BEC7B2"/>
<path d="M558.024 212.651H543.85V219.788H558.024V212.651Z" fill="#BEC7B2"/>
<path d="M465.737 203.204H451.563V210.342H465.737V203.204Z" fill="#BEC7B2"/>
<path d="M449.148 203.204H434.975V210.342H449.148V203.204Z" fill="#BEC7B2"/>
<path d="M401.798 226.82H387.624V233.958H401.798V226.82Z" fill="#BEC7B2"/>
<path d="M385.315 226.82H371.141V233.958H385.315V226.82Z" fill="#BEC7B2"/>
<path d="M418.387 323.804H404.213V330.942H418.387V323.804Z" fill="#BEC7B2"/>
<path d="M437.39 323.804H423.216V330.942H437.39V323.804Z" fill="#BEC7B2"/>
<path d="M427.836 333.251H413.662V340.388H427.836V333.251Z" fill="#BEC7B2"/>
<path d="M536.816 354.243H468.152V366.103H536.816V354.243Z" fill="#A9BDBC"/>
<path d="M527.262 248.127H477.601V349.834H527.262V248.127Z" fill="#7AC843"/>
<path d="M520.122 257.574H484.635V297.774H520.122V257.574Z" fill="#0A2E4E"/>
<path d="M456.288 245.713H430.25V311.944H456.288V245.713Z" fill="#7AC843"/>
<path d="M375.866 245.713H349.828V311.944H375.866V245.713Z" fill="#7AC843"/>
<path d="M408.937 333.251H394.764V340.388H408.937V333.251Z" fill="#BEC7B2"/>
<path d="M472.877 96.7739H458.703V103.911H472.877V96.7739Z" fill="#BEC7B2"/>
<path d="M358.122 245.713H355.707V311.944H358.122V245.713Z" fill="#5E9E2D"/>
<path d="M368.831 245.713H366.416V311.944H368.831V245.713Z" fill="#5E9E2D"/>
<path d="M439.804 245.713H437.39V311.944H439.804V245.713Z" fill="#5E9E2D"/>
<path d="M472.876 122.699H420.801V172.346H472.876V122.699Z" fill="#0A2E4E"/>
<path d="M449.254 245.713H446.839V311.944H449.254V245.713Z" fill="#5E9E2D"/>
<path d="M501.224 120.39H475.186V174.76H501.224V120.39Z" fill="#7AC843"/>
<path d="M484.741 120.39H482.326V174.76H484.741V120.39Z" fill="#5E9E2D"/>
<path d="M494.19 120.39H491.775V174.76H494.19V120.39Z" fill="#5E9E2D"/>
<path d="M419.016 120.39H392.454V174.76H419.016V120.39Z" fill="#7AC843"/>
<path d="M401.903 120.39H399.488V174.76H401.903V120.39Z" fill="#5E9E2D"/>
<path d="M411.352 120.39H408.937V174.76H411.352V120.39Z" fill="#5E9E2D"/>
<path d="M465.737 347.525H442.114V352.249H465.737V347.525Z" fill="#FBB03B"/>
<path d="M461.643 366.418H446.209L444.424 352.249H463.427L461.643 366.418Z" fill="#FBB03B"/>
<path d="M442.114 348.68C442.114 341.543 447.364 335.665 453.978 335.665C460.593 335.665 465.842 341.438 465.842 348.68" fill="#7AC843"/>
<path d="M565.058 347.525H541.435V352.249H565.058V347.525Z" fill="#FBB03B"/>
<path d="M560.963 366.418H545.635L543.85 352.249H562.748L560.963 366.418Z" fill="#FBB03B"/>
<path d="M541.435 348.68C541.435 341.543 546.685 335.665 553.299 335.665C559.809 335.665 565.163 341.438 565.163 348.68" fill="#7AC843"/>
<path d="M326.205 354.558H181.843V366.418H326.205V354.558Z" fill="white"/>
<path d="M425.526 250.437H380.59V311.944H425.526V250.437Z" fill="#0A2E4E"/>
<path d="M390.774 307.325H379.33L379.54 294.415L413.032 250.122L425.421 250.437V262.192L390.774 307.325Z" fill="#114972"/>
<path d="M495.974 297.774H484.531L484.741 284.969L507.838 257.574L520.437 257.469L520.227 269.225L495.974 297.774Z" fill="#114972"/>
<path d="M290.613 321.39H240.953V323.804H290.613V321.39Z" fill="white"/>
<path d="M240.953 335.665H219.64V338.079H240.953V335.665Z" fill="white"/>
<path d="M211.938 314.485L220.042 336.333L222.306 335.493L214.202 313.646L211.938 314.485Z" fill="white"/>
<path d="M290.6 337.947H311.914V335.533H290.6V337.947Z" fill="white"/>
<path d="M317.405 313.628L309.301 335.476L311.565 336.315L319.669 314.468L317.405 313.628Z" fill="white"/>
<path d="M279.136 321.801L246.026 354.902L247.733 356.609L280.844 323.508L279.136 321.801Z" fill="white"/>
<path d="M250.822 323.505L283.932 356.606L285.64 354.899L252.529 321.798L250.822 323.505Z" fill="white"/>
<path d="M222.414 337.676L240.157 355.414L241.864 353.707L224.121 335.969L222.414 337.676Z" fill="white"/>
<path d="M235.386 335.977L217.643 353.715L219.35 355.422L237.093 337.684L235.386 335.977Z" fill="white"/>
<path d="M293.399 337.681L311.142 355.419L312.85 353.712L295.107 335.974L293.399 337.681Z" fill="white"/>
<path d="M306.361 335.982L288.618 353.72L290.325 355.427L308.068 337.689L306.361 335.982Z" fill="white"/>
<path d="M375.865 245.713V311.944H430.25V245.713H375.865ZM399.488 307.22H380.59V284.549H399.488V307.22ZM425.526 307.22H406.628V284.549H425.526V307.22ZM425.526 280.036H380.59V250.542H425.526V280.036Z" fill="white"/>
<path d="M434.03 172.451H422.586L422.691 159.54L459.858 122.489L472.246 122.699V134.455L434.03 172.451Z" fill="#114972"/>
<path d="M419.016 120.39V174.76H475.816V120.39H419.016ZM445.999 172.451H422.586V148.834H445.999V172.451ZM445.999 146.42H422.586V122.804H445.999V146.42ZM472.247 172.451H448.834V148.834H472.247V172.451ZM472.247 146.42H448.834V122.804H472.247V146.42Z" fill="white"/>
<path d="M697.766 389.72H11.6539C8.81915 389.72 6.40437 387.41 6.40437 384.472V371.351C6.40437 368.517 8.71416 366.103 11.6539 366.103H697.766C700.601 366.103 703.015 368.413 703.015 371.351V384.472C703.015 387.41 700.601 389.72 697.766 389.72Z" fill="#A0E56A"/>
</svg>
